HIERARCHY
ROOT Hips
{
	OFFSET 0.000000 0.000000 0.000000 
	CHANNELS 6 Xposition Yposition Zposition Zrotation Xrotation Yrotation
	JOINT Spine
	{
		OFFSET -0.000000 8.280624 0.000000 
		CHANNELS 3 Zrotation Xrotation Yrotation
		JOINT Spine1
		{
			OFFSET -0.000000 24.860672 0.000000 
			CHANNELS 3 Zrotation Xrotation Yrotation
			JOINT Neck
			{
				OFFSET -0.000000 24.758574 2.250779 
				CHANNELS 3 Zrotation Xrotation Yrotation
				JOINT Head
				{
					OFFSET -0.000000 14.137651 -2.019665 
					CHANNELS 3 Zrotation Xrotation Yrotation
					End Site
					{
						OFFSET -0.000000 25.245806 0.000000 
					}
				}
			}
			JOINT LeftShoulder
			{
				OFFSET 4.021533 22.370487 -0.301823 
				CHANNELS 3 Zrotation Xrotation Yrotation
				JOINT LeftArm
				{
					OFFSET 12.928750 0.000000 0.000000 
					CHANNELS 3 Zrotation Xrotation Yrotation
					JOINT LeftForeArm
					{
						OFFSET 29.110218 0.000000 0.000000 
						CHANNELS 3 Zrotation Xrotation Yrotation
						JOINT LeftHand
						{
							OFFSET 26.112843 0.000000 0.000000 
							CHANNELS 3 Zrotation Xrotation Yrotation
							End Site
							{
								OFFSET 15.147485 0.000000 0.000000 
							}
						}
					}
				}
			}
			JOINT RightShoulder
			{
				OFFSET -4.040554 22.370487 -0.301823 
				CHANNELS 3 Zrotation Xrotation Yrotation
				JOINT RightArm
				{
					OFFSET -12.928750 0.000000 0.000000 
					CHANNELS 3 Zrotation Xrotation Yrotation
					JOINT RightForeArm
					{
						OFFSET -29.110218 0.000000 0.000000 
						CHANNELS 3 Zrotation Xrotation Yrotation
						JOINT RightHand
						{
							OFFSET -26.112843 0.000000 0.000000 
							CHANNELS 3 Zrotation Xrotation Yrotation
							End Site
							{
								OFFSET -15.147485 0.000000 0.000000 
							}
						}
					}
				}
			}
		}
	}
	JOINT LeftUpLeg
	{
		OFFSET 10.098323 0.000000 0.000000 
		CHANNELS 3 Zrotation Xrotation Yrotation
		JOINT LeftLeg
		{
			OFFSET -0.000000 -44.180832 0.000000 
			CHANNELS 3 Zrotation Xrotation Yrotation
			JOINT LeftFoot
			{
				OFFSET -0.000000 -40.401024 0.000000 
				CHANNELS 3 Zrotation Xrotation Yrotation
				JOINT LeftToeBase
				{
					OFFSET -0.000000 -6.563910 15.147485 
					CHANNELS 3 Zrotation Xrotation Yrotation
					End Site
					{
						OFFSET -0.000000 0.000000 4.039329 
					}
				}
			}
		}
	}
	JOINT RightUpLeg
	{
		OFFSET -10.098323 0.000000 0.000000 
		CHANNELS 3 Zrotation Xrotation Yrotation
		JOINT RightLeg
		{
			OFFSET -0.000000 -44.180832 0.000000 
			CHANNELS 3 Zrotation Xrotation Yrotation
			JOINT RightFoot
			{
				OFFSET -0.000000 -40.401024 0.000000 
				CHANNELS 3 Zrotation Xrotation Yrotation
				JOINT RightToeBase
				{
					OFFSET -0.000000 -6.563910 15.147485 
					CHANNELS 3 Zrotation Xrotation Yrotation
					End Site
					{
						OFFSET -0.000000 0.000000 4.039329 
					}
				}
			}
		}
	}
}
MOTION
Frames: 18
Frame Time: 0.008333
-32.423164 93.018013 -6.029427 16.035273 -1.139230 86.617630 -3.316847 19.285383 -1.059557 1.416997 3.737750 -1.669463 -1.727827 22.950506 18.564936 -12.242002 -8.075037 16.687181 -0.147617 8.145677 -23.129602 -32.416992 37.955498 -52.374969 -13.110683 -4.099368 -63.616428 35.631668 -15.309098 -9.961590 -3.125678 4.659977 12.562985 62.097008 17.383474 13.382097 16.708990 -13.951470 93.777046 1.895022 -30.298740 23.751411 4.021157 14.379186 0.925869 -2.160869 12.698866 0.068670 -2.468766 -8.561277 7.090928 0.000000 0.000000 0.000000 -2.303018 5.233708 4.323677 -1.075288 24.995131 13.265441 5.762113 -12.983397 -14.754154 0.000000 0.000000 0.000000 
-32.442818 92.994324 -5.988029 15.965838 -1.107281 86.530876 -3.348756 19.278309 -1.013952 1.522405 3.723089 -1.632268 -1.722219 22.774519 18.566158 -12.379871 -8.213836 16.648710 -0.117018 8.114101 -23.147230 -32.147179 38.033497 -52.647499 -13.556938 -3.915777 -63.562824 36.107540 -15.495819 -10.140183 -3.144998 4.723293 12.636097 61.981171 17.345453 13.263192 16.580942 -13.887251 93.816383 1.926049 -30.113287 24.396200 4.008075 14.175059 0.974417 -2.191468 12.974507 0.125131 -2.505879 -8.662911 7.097810 0.000000 0.000000 0.000000 -2.319722 5.474792 3.935688 -1.091229 24.292536 13.451513 4.598568 -12.245072 -14.711967 0.000000 0.000000 0.000000 
-32.454807 92.968483 -5.939583 15.913203 -1.067456 86.466354 -3.360737 19.283947 -0.982441 1.600599 3.720179 -1.605485 -1.833229 22.599648 18.588116 -12.352093 -8.436469 16.650150 -0.076874 8.042585 -23.204571 -31.838331 38.214283 -52.906258 -13.651536 -3.669761 -63.476841 36.707756 -15.423033 -10.338831 -3.087009 4.950478 12.686685 61.700279 17.184864 13.302393 16.552160 -13.705577 94.045792 1.777794 -30.010996 24.668129 3.996009 13.967512 1.034146 -2.215266 13.288821 0.142113 -2.545547 -8.771362 7.123657 0.000000 0.000000 0.000000 -2.322335 5.752665 3.614713 -1.142977 23.528435 13.422804 3.886082 -11.541398 -14.649382 0.000000 0.000000 0.000000 
-32.467461 92.941025 -5.879330 15.876038 -1.033943 86.415848 -3.358989 19.313639 -0.940040 1.666112 3.715069 -1.565693 -1.877144 22.421253 18.617193 -12.410707 -8.619091 16.649607 -0.021542 8.033444 -23.267654 -31.495333 38.359386 -53.293015 -13.819210 -3.655851 -63.397503 37.110149 -15.651340 -10.687082 -3.109943 4.970999 12.702997 61.655590 17.155792 13.155592 16.563126 -13.563229 94.351349 1.656429 -30.000046 24.895493 3.973454 13.714629 1.239008 -2.133723 13.728846 -0.011100 -2.661572 -8.913407 7.131268 0.000000 0.000000 0.000000 -2.308696 6.039635 3.288696 -1.245731 22.821646 13.740553 2.948422 -10.960409 -15.077943 0.000000 0.000000 0.000000 
-32.482174 92.909096 -5.813480 15.844086 -1.005274 86.371376 -3.330939 19.363474 -0.891640 1.696692 3.698017 -1.514791 -1.751485 22.248899 18.604420 -12.703421 -8.719651 16.574062 0.051683 8.018312 -23.383471 -30.959768 38.640537 -53.731476 -13.592637 -3.789387 -63.432098 37.280312 -15.688398 -10.757324 -3.111409 4.977618 12.677729 61.651562 17.061525 13.010571 16.562149 -13.327634 94.643417 1.482738 -29.901182 25.158447 3.981285 13.451981 1.409545 -2.100927 14.185753 -0.080730 -2.799083 -9.055440 7.102302 0.000000 0.000000 0.000000 -2.296470 6.287664 3.100457 -1.294630 22.224415 13.800399 2.199977 -10.620847 -15.317472 0.000000 0.000000 0.000000 
-32.498383 92.874756 -5.738079 15.822955 -0.981389 86.346886 -3.274134 19.433826 -0.863164 1.723235 3.677875 -1.479201 -1.866749 22.046762 18.663048 -12.662515 -8.910311 16.620613 0.084774 8.002048 -23.495213 -30.338018 39.149235 -54.218021 -13.464860 -4.374405 -63.627689 37.895271 -16.366821 -11.054560 -3.145485 5.025027 12.634684 61.628338 17.008511 12.979445 16.504347 -13.165722 94.930885 1.377041 -29.799374 25.351112 4.030662 13.158564 1.428857 -2.144676 14.717965 -0.083026 -2.887804 -9.219080 7.120415 0.000000 0.000000 0.000000 -2.264914 6.496489 3.070591 -1.323235 21.745705 13.607258 1.957066 -10.542515 -15.291757 0.000000 0.000000 0.000000 
-32.526138 92.842087 -5.651016 15.800591 -0.979395 86.330849 -3.210698 19.502552 -0.841267 1.755491 3.685074 -1.449595 -1.766571 21.921806 18.670115 -12.986738 -9.107026 16.544794 0.111010 7.993977 -23.555481 -29.943184 39.274944 -54.572926 -13.648603 -4.549186 -63.758183 38.577148 -16.831495 -11.330427 -3.174763 5.033071 12.596146 61.614685 16.940794 12.977687 16.457865 -12.988739 95.225380 1.048247 -29.742519 25.401402 4.060928 12.819331 1.632552 -2.023625 15.326238 -0.273116 -3.066563 -9.390378 7.113000 0.000000 0.000000 0.000000 -2.203405 6.619324 3.190426 -1.302543 21.453447 13.233738 1.723073 -10.528794 -15.020756 0.000000 0.000000 0.000000 
-32.559494 92.807693 -5.551983 15.776941 -1.014731 86.329506 -3.124094 19.581291 -0.829179 1.825066 3.687565 -1.427098 -1.832945 21.673191 18.732271 -13.022457 -9.167310 16.596434 0.130409 7.990018 -23.655077 -29.931221 39.015724 -54.587395 -13.967217 -4.204396 -63.813030 39.237648 -16.873804 -11.620654 -3.216697 5.076205 12.579782 61.551643 16.838257 13.048088 16.441698 -12.883664 95.526596 0.862241 -29.754885 25.379066 4.185788 12.439349 1.756885 -2.008791 16.011314 -0.475576 -3.174093 -9.593941 7.188513 0.000000 0.000000 0.000000 -2.087636 6.647136 3.381474 -1.255361 21.343163 12.838881 1.430166 -10.475071 -14.721901 0.000000 0.000000 0.000000 
-32.601311 92.776253 -5.456478 15.740898 -1.068429 86.345985 -2.970552 19.674023 -0.848203 1.812160 3.660663 -1.421258 -1.375587 21.987661 18.801037 -14.112719 -9.789026 16.378139 0.159694 7.956239 -23.727961 -29.824957 39.035473 -54.711521 -13.948415 -4.241647 -63.903751 39.845402 -17.001398 -11.682092 -3.199406 5.042123 12.570851 61.495289 16.804483 13.042849 16.369591 -12.877342 95.805756 0.794133 -29.770151 25.321316 4.105943 11.976682 2.653069 -1.315651 16.789730 -1.058167 -3.627731 -9.745584 6.842159 0.000000 0.000000 0.000000 -1.960937 6.605368 3.708112 -1.138544 21.317833 12.496932 1.318612 -10.472969 -14.742857 0.000000 0.000000 0.000000 
-32.667084 92.746178 -5.348137 15.655531 -1.145790 86.353432 -2.796129 19.772526 -0.867094 1.799650 3.559752 -1.410358 -1.593635 21.358671 18.786728 -13.535533 -9.286038 16.546638 0.207107 7.961603 -23.809757 -29.866167 38.939087 -54.736965 -13.863502 -4.189672 -63.969574 40.355030 -16.990919 -11.748989 -3.189745 5.024674 12.587394 61.421898 16.697460 13.085836 16.300627 -12.869226 96.009918 0.847996 -29.741430 25.264151 4.254143 11.437249 2.832765 -1.189176 17.751614 -2.718880 -3.531818 -10.177785 8.330058 0.000000 0.000000 0.000000 -1.790805 6.447936 4.083946 -1.026470 21.369858 12.282007 1.259969 -10.407001 -14.997364 0.000000 0.000000 0.000000 
-32.735355 92.718178 -5.245201 15.569372 -1.239382 86.373093 -2.620266 19.870028 -0.902269 1.826324 3.459988 -1.416454 -1.275268 21.676552 18.933754 -14.381456 -9.868368 16.457747 0.221127 7.953798 -23.857269 -29.797983 39.091225 -54.874756 -13.509753 -4.548268 -64.072273 40.634682 -17.208405 -11.865175 -3.219631 5.002875 12.621235 61.325363 16.626442 13.152414 16.242344 -12.918181 96.219131 0.886047 -29.778698 25.212805 4.444643 10.918389 2.724138 -1.223810 18.391689 -1.310553 -3.980340 -10.079662 6.986259 0.000000 0.000000 0.000000 -1.600820 6.264374 4.375666 -0.974393 21.467808 12.252680 1.285103 -10.337323 -15.297624 0.000000 0.000000 0.000000 
-32.810390 92.687447 -5.140800 15.474537 -1.314537 86.394516 -2.438687 19.958904 -0.962784 1.826594 3.360230 -1.445491 -1.502622 21.099257 18.902571 -13.834546 -9.413396 16.596691 0.244277 7.953202 -23.890951 -30.160963 38.613411 -54.657684 -13.737544 -4.134649 -64.073921 40.928333 -17.092245 -12.163649 -3.282682 4.914856 12.705372 61.270206 16.572351 13.235740 16.175262 -13.043042 96.383873 1.022976 -29.842840 25.130440 4.625919 10.334475 2.656894 -1.188759 19.285744 -1.748804 -4.221336 -10.269952 7.354247 0.000000 0.000000 0.000000 -1.442658 6.031886 4.683368 -0.859779 21.649849 12.078633 1.225376 -10.287984 -15.447206 0.000000 0.000000 0.000000 
-32.882317 92.647331 -5.036037 15.379839 -1.378482 86.420837 -2.297452 20.066227 -1.008650 1.853756 3.214183 -1.467149 -1.292984 21.420218 19.035723 -14.445510 -9.991797 16.537727 0.252666 8.027907 -23.800406 -30.302460 38.316433 -54.807472 -13.608406 -4.022613 -63.891983 41.034065 -16.989885 -12.440996 -3.339830 4.838866 12.754667 61.185413 16.546587 13.318785 16.063786 -13.180810 96.514626 1.197206 -29.855848 25.110905 4.812208 9.764507 2.582866 -1.247204 20.255264 -3.035272 -4.133557 -10.666263 8.758263 0.000000 0.000000 0.000000 -1.295629 5.778033 4.828521 -0.793369 21.868790 11.945847 1.241035 -10.275958 -15.478514 0.000000 0.000000 0.000000 
-32.977734 92.599747 -4.908638 15.221935 -1.434679 86.466881 -2.198035 20.129583 -1.052732 1.904836 3.044655 -1.493514 -1.187002 21.262680 19.069719 -14.499056 -9.909771 16.578773 0.249072 7.904473 -23.961683 -30.568203 38.206223 -54.607422 -13.353638 -4.038551 -63.874104 41.160812 -16.939276 -12.651669 -3.359993 4.770578 12.836706 61.034878 16.496765 13.414179 15.995618 -13.335693 96.668655 1.302968 -29.947985 25.074869 5.031216 9.046833 2.615149 -1.322115 21.067858 -1.395454 -4.675066 -10.478297 7.055337 0.000000 0.000000 0.000000 -1.135771 5.421121 4.944815 -0.736198 22.161179 12.097138 1.485315 -10.308823 -15.784485 0.000000 0.000000 0.000000 
-33.034504 92.526611 -4.821468 15.150714 -1.431098 86.524460 -2.098531 20.215569 -1.094626 1.908078 2.929691 -1.517533 -1.495058 20.731243 19.011766 -13.657419 -9.531910 16.741787 0.221466 7.845937 -24.038834 -30.649055 38.074425 -54.657810 -12.951518 -4.030585 -63.681248 41.168400 -16.767584 -12.949496 -3.424604 4.594569 12.898228 60.952965 16.495480 13.410530 15.929155 -13.477585 96.821266 1.331898 -30.044724 25.011724 5.177390 8.464099 2.497333 -1.403811 22.137070 -2.983793 -4.579684 -10.980235 8.646186 0.000000 0.000000 0.000000 -1.109918 5.184583 4.938636 -0.640264 22.454273 12.394901 1.143455 -10.506734 -16.097574 0.000000 0.000000 0.000000 
-33.127728 92.452469 -4.700825 15.000554 -1.440410 86.603577 -2.048286 20.257526 -1.141101 1.981278 2.794854 -1.555348 -1.272771 21.091494 19.130444 -14.229562 -10.163940 16.669540 0.170117 7.801343 -24.066854 -30.645880 37.888931 -54.770565 -12.549628 -4.012593 -63.489227 41.117466 -16.548365 -13.157208 -3.486870 4.458496 13.028684 60.810974 16.471029 13.436455 15.815043 -13.649122 96.991768 1.301082 -30.135860 24.904394 5.439396 7.758874 2.239275 -1.733787 23.059702 -2.710450 -4.732377 -11.096844 8.571329 0.000000 0.000000 0.000000 -1.022514 4.807786 4.756422 -0.630707 22.824194 12.622919 1.002371 -10.663393 -16.195293 0.000000 0.000000 0.000000 
-33.188499 92.361084 -4.613499 14.950748 -1.389901 86.723663 -1.978663 20.342281 -1.195760 1.954817 2.712905 -1.597000 -1.433880 20.540377 19.015978 -13.506488 -9.690573 16.766251 0.121397 7.749214 -24.114550 -30.501930 37.701431 -55.022713 -12.196360 -4.008842 -63.195965 41.138329 -16.407770 -13.471994 -3.493927 4.329774 13.097763 60.815083 15.551358 13.513305 16.168451 -12.934397 96.932457 1.327001 -29.840170 24.848728 5.605972 7.133760 1.982838 -2.000151 24.023687 -2.383806 -4.961973 -11.217260 8.332806 0.000000 0.000000 0.000000 -1.067603 4.577685 4.489168 -0.540245 23.129715 12.635620 0.816482 -10.889874 -16.059702 0.000000 0.000000 0.000000 
-33.259556 92.275345 -4.518345 14.887632 -1.332614 86.857903 -1.922839 20.415451 -1.234922 1.923604 2.635594 -1.625359 -1.143497 20.863188 19.044048 -14.012191 -10.239786 16.627132 0.058799 7.660876 -24.241076 -30.356354 37.531799 -55.191563 -11.737036 -3.995477 -62.991913 41.142151 -15.993196 -13.201777 -3.503213 4.180007 13.198901 60.722095 15.216263 13.488600 16.170826 -12.880563 97.021248 1.456799 -29.796465 24.773205 5.793725 6.486767 1.932287 -2.165646 25.034718 -2.739375 -5.243616 -11.360456 8.436783 0.000000 0.000000 0.000000 -1.109585 4.336689 4.310923 -0.400503 23.420282 12.425845 0.760301 -11.089000 -15.845196 0.000000 0.000000 0.000000 
